<?xml version="1.0" standalone="no"?>
<!DOCTYPE svg PUBLIC "-//W3C//DTD SVG 20010904//EN"
 "http://www.w3.org/TR/2001/REC-SVG-20010904/DTD/svg10.dtd">
<svg version="1.0" xmlns="http://www.w3.org/2000/svg"
 width="2000.000000pt" height="388.000000pt" viewBox="0 0 2000.000000 388.000000"
 preserveAspectRatio="xMidYMid meet">

<g transform="translate(0.000000,388.000000) scale(0.100000,-0.100000)"
fill="#000000" stroke="none">
<path d="M1750 3873 c-165 -19 -425 -94 -592 -171 -390 -181 -726 -512 -919
-907 -443 -910 -124 -1993 743 -2522 177 -108 394 -193 613 -239 164 -35 503
-45 671 -20 884 135 1557 835 1653 1718 93 847 -389 1667 -1174 1999 -258 109
-471 150 -765 147 -107 0 -211 -3 -230 -5z m472 -148 c355 -47 684 -196 954
-433 288 -253 497 -613 573 -987 50 -243 50 -487 0 -730 -76 -375 -286 -736
-573 -986 -919 -803 -2341 -490 -2838 624 -103 229 -152 464 -152 727 0 192
19 326 70 502 195 679 783 1187 1484 1283 128 17 352 18 482 0z"/>
<path d="M1217 2863 c-4 -3 -7 -23 -7 -43 0 -49 -24 -70 -81 -70 -52 0 -85
-19 -76 -44 4 -10 18 -16 41 -16 88 0 116 -40 116 -167 0 -104 20 -157 71
-194 33 -24 38 -24 251 -24 204 0 218 1 245 21 53 39 73 81 73 151 0 69 17
116 49 133 11 5 50 10 86 10 36 0 75 -5 86 -10 32 -17 49 -64 49 -133 0 -70
20 -112 73 -151 26 -19 44 -21 232 -24 230 -4 254 1 301 63 26 35 29 46 32
139 2 55 8 113 13 127 13 33 58 59 103 59 25 0 39 5 43 16 9 25 -24 44 -78 44
-55 0 -71 14 -78 73 l-6 42 -315 0 -315 0 -6 -64 c-5 -56 -11 -68 -38 -93 -27
-25 -39 -28 -96 -28 -57 0 -69 3 -96 28 -27 25 -33 37 -38 93 l-6 64 -311 3
c-171 1 -313 -1 -317 -5z m580 -115 l24 -22 -128 -128 c-70 -70 -133 -128
-139 -128 -6 0 -19 9 -29 20 -19 21 -17 22 110 150 72 72 132 130 134 130 3 0
15 -10 28 -22z m905 5 c10 -9 18 -21 18 -27 0 -13 -241 -256 -254 -256 -5 0
-20 10 -33 22 l-24 22 128 128 c70 70 132 128 137 128 5 0 18 -7 28 -17z
m-1134 -36 l22 -23 -133 -132 -133 -133 -24 26 -24 26 129 129 c71 72 132 130
136 130 3 0 15 -10 27 -23z m910 0 l22 -23 -133 -132 -133 -133 -24 26 -24 26
129 129 c71 72 132 130 136 130 3 0 15 -10 27 -23z"/>
<path d="M1061 2026 c-27 -80 12 -201 85 -266 63 -55 113 -71 239 -77 l112 -6
7 34 c15 81 77 161 154 200 61 30 163 37 228 15 l46 -16 -14 23 c-22 34 -95
67 -148 67 -25 0 -146 -20 -270 -45 -124 -25 -245 -45 -270 -45 -75 0 -134 49
-149 123 l-7 32 -13 -39z"/>
<path d="M2890 2033 c0 -29 -37 -82 -72 -103 -48 -29 -95 -26 -348 25 -124 25
-245 45 -270 45 -53 0 -126 -33 -148 -67 l-14 -23 42 15 c96 34 215 10 297
-59 34 -29 93 -136 93 -169 0 -19 5 -20 114 -14 141 7 197 28 261 99 61 68 89
169 69 246 -7 26 -24 30 -24 5z"/>
<path d="M1689 1842 c-53 -27 -97 -82 -114 -139 -6 -21 -3 -23 33 -23 36 0 46
6 103 65 34 36 70 65 80 65 10 0 42 -14 70 -32 50 -30 52 -31 65 -13 26 35 17
55 -38 80 -72 34 -131 33 -199 -3z"/>
<path d="M2105 1857 c-80 -32 -89 -47 -56 -101 36 -58 70 -69 219 -74 l134 -5
-7 24 c-36 126 -176 200 -290 156z"/>
<path d="M1767 1702 l-26 -27 26 -45 c14 -25 28 -47 30 -49 4 -6 93 80 93 90
0 6 -83 59 -92 59 -3 0 -16 -12 -31 -28z"/>
<path d="M1896 1571 l-56 -57 23 -22 23 -22 53 54 54 54 -20 26 -20 25 -57
-58z"/>
<path d="M1991 1476 l-54 -55 51 -58 c28 -32 77 -84 109 -116 l59 -57 53 54
54 55 -109 115 c-60 64 -109 116 -109 116 0 0 -25 -24 -54 -54z"/>
<path d="M2252 1187 l-52 -53 25 -24 25 -23 50 49 c27 27 50 54 50 60 0 10
-31 44 -41 44 -3 0 -28 -24 -57 -53z"/>
<path d="M2351 1086 c-56 -56 -59 -76 -12 -76 30 0 91 55 91 82 0 22 -10 48
-19 48 -4 0 -31 -24 -60 -54z"/>
<path d="M8559 2751 c-65 -66 -20 -171 74 -171 69 0 113 55 99 125 -14 75
-116 102 -173 46z"/>
<path d="M4755 2758 c-3 -7 -4 -299 -3 -648 l3 -635 62 -3 63 -3 2 288 3 288
185 5 c174 5 188 7 240 31 93 45 148 113 175 214 50 194 -35 392 -194 451 -62
24 -528 34 -536 12z m492 -127 c152 -70 162 -351 16 -442 -36 -23 -46 -24
-208 -24 l-170 0 -3 230 c-1 126 0 235 2 242 4 10 45 13 163 13 134 0 164 -3
200 -19z"/>
<path d="M11022 2118 l3 -643 58 -3 57 -3 0 289 0 289 183 6 c208 6 250 16
319 77 189 166 139 525 -85 608 -53 20 -77 22 -297 22 l-240 0 2 -642z m503
507 c73 -45 105 -112 105 -219 0 -102 -29 -169 -92 -212 -41 -29 -42 -29 -220
-32 l-178 -3 0 244 c0 134 3 247 8 251 4 4 79 6 168 4 159 -3 161 -3 209 -33z"/>
<path d="M11962 2118 l3 -643 57 -3 57 -3 3 343 c3 338 3 344 27 391 68 140
263 141 339 3 15 -27 18 -77 22 -381 l5 -350 58 -3 57 -3 0 359 c0 397 -4 426
-62 496 -46 56 -116 86 -202 86 -90 0 -138 -15 -191 -62 -24 -21 -46 -38 -49
-38 -3 0 -6 101 -6 225 l0 225 -60 0 -60 0 2 -642z"/>
<path d="M18462 2118 l3 -643 57 -3 57 -3 3 343 c3 338 3 344 27 391 68 139
263 140 339 2 15 -26 18 -79 22 -380 l5 -350 58 -3 58 -3 -3 378 -3 378 -27
50 c-49 94 -119 134 -232 135 -90 0 -138 -15 -191 -62 -24 -21 -46 -38 -49
-38 -3 0 -6 101 -6 225 l0 225 -60 0 -60 0 2 -642z"/>
<path d="M8010 2525 l0 -114 -57 -3 -58 -3 0 -50 0 -50 57 -3 57 -3 3 -347 c3
-333 4 -349 24 -387 34 -63 89 -88 202 -93 l92 -4 0 55 0 55 -61 7 c-47 6 -69
14 -93 35 l-31 28 -3 326 -3 325 98 3 98 3 0 50 0 50 -97 3 -98 3 0 114 0 115
-65 0 -65 0 0 -115z"/>
<path d="M13788 2523 l-3 -118 -57 -3 -58 -3 0 -44 0 -44 58 -3 57 -3 5 -355
c5 -334 6 -357 25 -390 33 -55 98 -83 198 -84 l82 -1 3 51 3 51 -59 6 c-70 6
-106 27 -121 69 -7 20 -11 147 -11 344 l0 314 100 0 100 0 0 45 0 45 -100 0
-99 0 -3 118 -3 117 -57 3 -57 3 -3 -118z"/>
<path d="M6003 2410 c-54 -8 -112 -48 -143 -98 -14 -23 -28 -42 -32 -42 -4 0
-8 30 -10 68 l-3 67 -51 3 c-35 2 -55 -2 -62 -11 -9 -11 -12 -133 -10 -468 l3
-454 63 -3 62 -3 0 273 c0 150 5 302 10 338 15 106 82 181 173 193 25 4 59 2
78 -3 18 -5 34 -8 37 -6 2 2 9 29 16 60 11 47 11 58 -1 67 -19 17 -81 26 -130
19z"/>
<path d="M6503 2406 c-92 -30 -148 -81 -189 -170 -25 -56 -28 -71 -32 -231 -8
-284 17 -389 113 -473 59 -52 124 -74 222 -74 135 0 240 58 293 161 30 60 27
78 -17 85 -21 4 -46 9 -55 12 -13 4 -21 -2 -27 -19 -31 -81 -123 -134 -217
-124 -116 12 -173 82 -182 224 l-5 83 269 2 269 3 3 75 c4 100 -13 231 -37
284 -25 57 -84 116 -146 145 -62 29 -198 38 -262 17z m207 -125 c59 -30 89
-84 101 -180 5 -46 8 -90 5 -97 -4 -11 -47 -14 -206 -14 l-200 0 0 63 c0 93
22 158 70 201 22 19 52 38 67 42 16 3 33 7 38 10 19 7 90 -7 125 -25z"/>
<path d="M7380 2409 c-106 -13 -178 -61 -216 -144 -33 -69 -32 -145 1 -212 39
-77 88 -110 254 -169 53 -20 115 -46 137 -59 99 -58 95 -180 -7 -240 -25 -14
-52 -20 -99 -20 -106 0 -176 49 -189 132 l-6 38 -60 0 c-56 0 -60 -2 -63 -24
-7 -49 21 -115 68 -162 64 -64 126 -84 255 -84 89 0 106 3 157 28 203 100 198
354 -9 449 -32 15 -106 46 -165 68 -152 58 -185 97 -166 190 26 128 265 147
338 28 11 -18 20 -45 20 -60 0 -27 1 -28 60 -28 l60 0 0 38 c0 21 -12 61 -26
90 -53 107 -184 161 -344 141z"/>
<path d="M9159 2406 c-96 -34 -156 -97 -186 -194 -15 -47 -18 -95 -18 -277 0
-208 2 -223 24 -279 49 -122 146 -189 276 -189 84 0 135 19 189 71 l38 37 -4
-90 c-10 -185 -94 -265 -275 -265 l-63 0 0 -61 0 -62 103 5 c89 4 113 9 169
35 105 49 164 124 188 241 7 29 9 236 8 537 l-3 490 -60 0 -60 0 -3 -43 -3
-43 -41 35 c-71 61 -191 84 -279 52z m221 -125 c20 -10 48 -38 65 -66 l30 -48
4 -187 c4 -221 -6 -284 -52 -337 -39 -44 -82 -63 -144 -63 -62 0 -124 31 -157
79 -35 50 -50 180 -42 351 7 154 17 191 65 239 61 61 150 74 231 32z"/>
<path d="M10043 2402 c-93 -33 -166 -110 -194 -202 -16 -54 -23 -333 -11 -432
15 -115 43 -178 104 -233 61 -55 125 -77 226 -77 139 0 237 56 292 164 16 34
27 65 23 69 -5 4 -30 11 -56 17 l-48 10 -24 -37 c-51 -82 -121 -117 -213 -108
-112 12 -166 79 -178 224 l-7 83 269 2 269 3 3 85 c8 227 -44 353 -174 416
-74 36 -204 44 -281 16z m172 -103 c96 -26 138 -91 150 -227 l7 -82 -203 2
-204 3 3 80 c2 44 7 94 13 112 12 39 78 100 116 109 16 3 33 7 38 9 19 6 40 5
80 -6z"/>
<path d="M13083 2410 c-136 -29 -221 -122 -244 -271 -17 -107 -6 -419 16 -481
23 -66 93 -140 157 -169 44 -20 69 -24 153 -24 89 0 106 3 157 28 64 32 112
81 140 145 49 109 47 486 -2 600 -28 64 -102 134 -166 156 -59 20 -157 28
-211 16z m191 -130 c20 -12 49 -43 64 -68 27 -46 27 -50 30 -248 4 -214 -2
-257 -41 -315 -71 -106 -257 -107 -331 -1 -36 53 -50 168 -43 353 7 194 29
247 122 291 53 25 149 20 199 -12z"/>
<path d="M14559 2410 c-103 -17 -193 -92 -230 -188 -17 -47 -22 -87 -26 -222
-9 -269 17 -384 103 -460 68 -59 116 -75 229 -75 89 0 106 3 157 28 144 71
187 197 175 512 -7 182 -22 237 -85 306 -53 59 -97 83 -177 98 -65 12 -79 12
-146 1z m194 -137 c63 -44 80 -89 88 -220 9 -171 -2 -330 -27 -378 -32 -62
-84 -98 -148 -103 -80 -6 -122 5 -166 44 -65 59 -75 101 -75 314 0 209 9 259
59 315 62 71 189 85 269 28z"/>
<path d="M15417 2410 c-95 -24 -172 -92 -202 -179 -42 -124 -39 -488 5 -588
25 -58 81 -117 135 -146 63 -32 177 -35 243 -7 29 13 64 36 77 52 37 44 48 28
40 -56 -17 -189 -84 -255 -273 -272 l-73 -7 3 -51 3 -51 90 1 c184 3 303 80
352 228 15 45 18 113 21 559 l3 507 -60 0 -61 0 0 -39 c0 -22 -4 -42 -8 -45
-5 -3 -22 9 -38 26 -55 59 -171 89 -257 68z m163 -110 c44 -12 93 -61 115
-114 24 -58 24 -433 0 -494 -51 -127 -230 -161 -321 -60 -56 61 -59 77 -59
308 0 201 1 218 22 255 51 95 140 134 243 105z"/>
<path d="M16917 2410 c-108 -19 -202 -96 -227 -185 -7 -25 -11 -47 -9 -49 2
-2 30 -7 61 -11 l58 -7 19 43 c10 24 27 52 38 61 29 26 88 48 130 48 127 0
193 -76 193 -220 l0 -70 -122 0 c-68 0 -148 -6 -179 -14 -114 -26 -192 -94
-219 -191 -18 -64 -9 -179 19 -232 68 -134 322 -166 448 -58 23 19 44 35 47
35 2 0 6 -19 8 -42 l3 -43 60 0 60 0 3 315 c3 354 -4 424 -48 494 -65 102
-200 152 -343 126z m263 -589 c0 -110 -8 -142 -48 -185 -85 -90 -289 -89 -336
2 -37 72 -27 157 25 216 44 51 94 64 237 65 l122 1 0 -99z"/>
<path d="M17847 2410 c-54 -14 -91 -35 -120 -70 -14 -16 -28 -30 -31 -30 -3 0
-6 20 -6 45 l0 45 -60 0 -60 0 2 -642 3 -643 55 0 55 0 5 230 5 230 23 -33
c72 -100 272 -109 380 -16 85 72 112 158 119 369 7 220 -23 350 -101 442 -52
61 -177 95 -269 73z m110 -111 c52 -19 92 -69 116 -144 18 -59 22 -93 21 -215
0 -171 -17 -247 -70 -308 -44 -51 -80 -65 -154 -60 -49 3 -66 10 -89 32 -65
62 -98 213 -88 395 13 215 72 309 194 311 23 0 54 -5 70 -11z"/>
<path d="M8571 2396 c-8 -9 -10 -140 -9 -467 l3 -454 59 -3 c41 -2 62 1 67 10
14 22 11 902 -3 916 -17 17 -103 15 -117 -2z"/>
<path d="M16345 2391 c-41 -18 -89 -66 -108 -108 -18 -40 -27 -25 -27 47 l0
70 -60 0 -60 0 2 -462 3 -463 57 -3 57 -3 3 323 3 323 30 54 c18 32 46 64 69
80 34 23 50 26 117 26 l78 -1 10 42 c6 24 11 49 11 57 0 38 -117 49 -185 18z"/>
<path d="M19264 2383 c3 -10 67 -220 141 -467 l136 -449 -21 -71 c-41 -136
-75 -174 -164 -185 l-51 -6 0 -50 0 -50 60 2 c124 6 192 57 238 181 24 64 337
1092 337 1105 0 10 -118 9 -124 -1 -5 -9 -206 -738 -206 -749 0 -4 -4 -3 -9 3
-5 5 -53 169 -106 364 -53 195 -98 363 -101 373 -4 14 -17 17 -70 17 -58 0
-65 -2 -60 -17z"/>
</g>
</svg>
